<svg width="95" height="57" viewBox="0 0 95 57" fill="none" xmlns="http://www.w3.org/2000/svg">
<g clip-path="url(#clip0_21_134)">
<path d="M26.875 20.6704L27.5 23.489C27.5 24.4286 27.8125 25.055 28.4375 25.9945V26.6209L28.125 27.5605L25.9375 28.8132L25.3125 29.1264L24.375 28.8132L23.125 27.2473L22.1875 25.3682C19.6875 28.1868 16.5625 29.7528 13.125 29.7528C10.3125 29.7528 8.125 28.8132 6.875 27.2473C5.3125 25.9945 4.375 23.8022 4.375 21.2967C4.375 18.7912 5.3125 16.5989 7.1875 15.033C9.0625 13.1539 11.5625 12.5275 15 12.5275C17.3244 12.5148 19.6389 12.8311 21.875 13.4671V11.2748C21.875 8.76926 21.25 7.20333 20.3125 6.26377C19.375 5.01102 17.8125 4.69784 15.3125 4.69784L11.875 5.01102C10.3713 5.39578 8.90668 5.92002 7.5 6.57696H6.875C6.5625 6.57696 6.25 6.26377 6.25 5.6374V4.07146L6.5625 3.1319C6.5625 2.81871 6.875 2.50553 7.5 2.50553L11.25 0.939594L16.25 0.31322C20 0.31322 22.5 1.25278 24.375 2.81871C25.9375 4.69784 26.875 7.20333 26.875 10.6484V20.6704ZM14.375 25.6813L17.5 25.055C18.75 24.7418 19.6875 23.8022 20.625 22.8627L21.5625 20.9835L21.875 18.1649V16.9121C19.926 16.4777 17.934 16.2676 15.9375 16.2857C14.0625 16.2857 12.5 16.5989 11.25 17.5385C10.3125 18.1649 10 19.4176 10 20.9835C10 22.5495 10.3125 23.489 10.9375 24.4286C11.875 25.055 12.8125 25.6813 14.375 25.6813ZM39.375 28.8132L38.125 28.5L37.5 27.5605L30.3125 3.1319L30 1.87915L30.625 1.25278H33.75L35 1.56597L35.625 2.81871L40.9375 23.489L45.625 2.81871L46.25 1.56597L47.5 1.25278H50L51.25 1.56597L51.875 2.81871L56.875 23.8022L62.1875 2.81871L62.8125 1.56597L64.0625 1.25278H66.875C67.5 1.25278 67.8125 1.56597 67.8125 1.87915V2.50553L67.5 3.1319L60 27.5605L59.375 28.8132L58.125 29.1264H55.3125L54.0625 28.8132L53.75 27.5605L48.75 7.20333L44.0625 27.2473L43.4375 28.5L42.1875 28.8132H39.375ZM79.6875 29.7528C76.7741 29.7307 73.8985 29.0902 71.25 27.8737L70.3125 26.9341L70 26.3077V24.7418C70 24.1154 70.3125 23.8022 70.625 23.8022H71.25L72.1875 24.1154C74.4393 25.1607 76.8934 25.6954 79.375 25.6813C81.25 25.6813 82.8125 25.055 83.75 24.4286C85 23.8022 85.3125 22.8627 85.3125 21.6099L84.6875 19.4176L81.5625 17.8517L76.875 16.2857C74.6875 15.6594 72.8125 14.4066 71.875 13.1539C71.2678 12.3566 70.8259 11.4456 70.5754 10.4745C70.3249 9.50343 70.2709 8.49193 70.4165 7.4996C70.5621 6.50727 70.9044 5.55418 71.4232 4.69649C71.9421 3.83879 72.6269 3.09384 73.4375 2.50553L76.5625 0.939594C78.5697 0.25032 80.7088 0.0359351 82.8125 0.31322C84.0791 0.555669 85.3311 0.869351 86.5625 1.25278L87.8125 1.87915L88.75 2.50553L89.0625 3.75828V5.01102C89.0625 5.95058 88.75 6.26377 88.4375 6.26377L87.1875 5.6374C85.3125 5.01102 83.4375 4.69784 81.25 4.69784C79.375 4.69784 77.8125 4.69784 76.875 5.32421C75.9375 5.95058 75.625 6.89014 75.625 8.14289C75.625 9.08245 75.9375 9.70882 76.5625 10.3352C77.1875 10.9616 78.125 11.5879 80 12.2143L84.375 13.4671C86.5625 14.4066 88.125 15.3462 89.0625 16.5989C90 17.8517 90.625 19.4176 90.625 20.9835L89.6875 24.7418L87.5 27.2473C86.5625 28.1868 85.3125 28.8132 84.0625 29.1264L79.6875 29.7528Z" fill="#263238"/>
<path fill-rule="evenodd" clip-rule="evenodd" d="M85.625 45.0989C72.8773 53.6317 57.6498 57.6499 42.3622 56.515C27.0747 55.3801 12.6041 49.1572 1.25 38.8352C-2.32458e-06 37.8956 0.937498 36.9561 1.875 37.5825C14.2905 44.631 28.1476 48.7463 42.3904 49.6147C56.6333 50.4831 70.886 48.0817 84.0625 42.5934C85.625 41.9671 87.1875 43.8462 85.625 45.0989Z" fill="#FF9900"/>
<path fill-rule="evenodd" clip-rule="evenodd" d="M89.6875 40.0879C88.4375 38.522 80.9375 39.1483 77.8125 39.7747C76.5625 39.7747 76.5625 38.8351 77.5 38.2088C83.4375 34.1373 93.125 35.3901 94.0625 36.6428C95.3125 38.2088 93.75 47.9176 88.4375 52.6154C87.5 53.2417 86.5625 52.9285 86.875 51.989C88.4375 48.8571 90.9375 41.6538 89.6875 40.0879Z" fill="#FF9900"/>
</g>
<defs>
<clipPath id="clip0_21_134">
<rect width="95" height="57" fill="white"/>
</clipPath>
</defs>
</svg>
