<?xml version="1.0" encoding="utf-8"?>
<svg xmlns="http://www.w3.org/2000/svg" viewBox="130.682 78.409 203.977 244.318">
  <path d="M 197.495 318.431 C 183.175 312.241 169.775 296.509 169.743 280.412 C 169.704 262.862 180.826 247.962 194.659 238.17 C 192.996 244.453 192.089 250.2 196.209 255.82 C 200.039 261.045 206.747 263.584 213.081 262.206 C 227.881 258.966 228.56 242.696 219.786 233.217 C 211.111 223.83 202.719 213.227 206.021 199.614 C 207.674 192.79 211.864 186.398 217.172 181.829 C 213.092 192.551 224.686 203.125 232.325 208.392 C 245.576 217.53 260.115 224.436 272.299 235.148 C 285.115 246.406 294.579 261.628 292.668 279.283 C 290.597 298.419 275.391 311.728 258.335 318.447 C 294.377 310.492 331.618 282.519 332.381 242.547 C 333.013 209.662 310.454 184.354 282.509 169.865 L 281.049 169.068 C 281.816 170.929 282.067 172.512 282.038 173.929 C 282.288 172.884 282.458 171.81 282.506 170.702 C 282.499 172.018 282.327 173.328 281.994 174.602 L 282.038 173.929 C 281.623 175.675 280.924 177.341 279.969 178.86 L 280.379 178.419 C 274.804 187.666 259.711 189.674 252.255 180.099 C 240.269 164.697 252.506 148.091 254.218 131.781 C 256.361 111.34 243.542 91.496 227.648 79.621 C 236.402 93.782 224.869 112.517 215.642 122.991 C 206.695 133.144 195.814 141.621 185.937 150.846 C 175.327 160.754 165.127 171.191 156.406 182.82 C 138.964 206.096 128.286 235.37 136.133 264.408 C 143.975 293.426 169.111 311.898 197.496 318.43 L 197.495 318.431 Z" fill="#EE4323"/>
</svg>