<svg
	width="50"
	height="56"
	viewBox="0 0 50 56"
	fill="none"
	xmlns="http://www.w3.org/2000/svg"
>
	<path
		d="M49.778 16.6261C49.778 15.691 49.5764 14.8644 49.1711 14.1558C48.7412 13.4251 48.1223 12.8233 47.3793 12.4134C40.7805 8.6112 34.174 4.82638 27.581 1.02414C25.8028 -0.00192535 24.0789 0.0367942 22.3144 1.07641C19.6888 2.62131 6.53966 10.1425 2.62265 12.4076C1.00737 13.3446 0.223971 14.7715 0.220093 16.6242V39.5402C0.220093 40.454 0.414004 41.2632 0.799888 41.9621C1.19741 42.6823 1.80241 43.2825 2.61878 43.7548C6.53772 46.0199 19.6869 53.5412 22.3124 55.0861C24.0789 56.1276 25.8028 56.1644 27.581 55.1383C34.1779 51.3361 40.7825 47.5493 47.3793 43.7529C48.1405 43.3349 48.7712 42.7152 49.2021 41.9621C49.588 41.2632 49.78 40.4521 49.78 39.5383L49.778 16.6261Z"
		fill="#A179DC"></path>
	<path
		d="M25.0756 28.0076L0.797913 41.964C1.19737 42.6803 1.80237 43.2805 2.62068 43.7548C6.53769 46.0199 19.6868 53.5411 22.3124 55.086C24.0789 56.1276 25.8028 56.1644 27.581 55.1383C34.1778 51.3361 40.7824 47.5493 47.3793 43.7529C48.1404 43.3349 48.7712 42.7152 49.2021 41.9621L25.0756 28.0076Z"
		fill="#280068"></path>
	<path
		d="M49.778 16.6261C49.778 15.691 49.5763 14.8644 49.1711 14.1558L25.0756 28.0077L49.2001 41.9602C49.588 41.2633 49.7799 40.4521 49.7819 39.5383C49.7819 39.5383 49.7819 24.2635 49.778 16.6261Z"
		fill="#390091"></path>
	<path
		d="M39.3707 22.7921V25.3999H41.9827V22.7902H43.2877V25.3999H45.9017V26.7028H43.2877V29.3125H45.9017V30.6173H43.2877V33.2251H41.9827V30.6135H39.3688V33.2231H38.0638V30.6135H35.4498V29.3105H38.0618V26.7028H35.4498V25.398H38.0618V22.7883L39.3707 22.7921ZM41.9827 26.7028H39.3688V29.3125H41.9827V26.7028Z"
		fill="white"></path>
	<path
		d="M25.1299 9.69147C28.3624 9.69012 31.5382 10.5383 34.3382 12.1509C37.1383 13.7634 39.4638 16.0834 41.081 18.8776L41.05 18.8254L33.0318 23.433C32.2307 22.0752 31.092 20.9469 29.726 20.1573C28.36 19.3677 26.8129 18.9436 25.2346 18.926H25.1299C22.6973 18.926 20.3644 19.8908 18.6443 21.6081C16.9242 23.3254 15.9579 25.6545 15.9579 28.0832C15.9557 29.6772 16.3722 31.2438 17.166 32.6269C17.9699 34.034 19.1335 35.2029 20.5379 36.0142C21.9422 36.8256 23.5371 37.2502 25.1597 37.2449C26.7823 37.2396 28.3743 36.8045 29.7734 35.984C31.1724 35.1635 32.3283 33.987 33.1229 32.5746L33.0841 32.6424L41.0907 37.2713C39.4923 40.0401 37.1985 42.3452 34.4356 43.9591C31.6728 45.5731 28.5363 46.4402 25.3354 46.4749H25.1299C22.7105 46.4759 20.3145 46.0009 18.0791 45.077C15.8436 44.153 13.8124 42.7984 12.1016 41.0903C10.3908 39.3823 9.03391 37.3544 8.1085 35.1226C7.18309 32.8907 6.7073 30.4987 6.70831 28.0832C6.70831 23.2054 8.64915 18.5274 12.1039 15.0783C15.5586 11.6292 20.2442 9.69147 25.1299 9.69147Z"
		fill="white"></path>
</svg>
