<svg width="58" height="57" viewBox="0 0 58 57" fill="none" xmlns="http://www.w3.org/2000/svg">
<g clip-path="url(#clip0_21_128)">
<path d="M29.0002 0C12.9859 0 0 13.066 0 29.1842C0 42.0785 8.30941 53.0182 19.8321 56.8771C21.2815 57.1473 21.8137 56.2439 21.8137 55.4731C21.8137 54.7772 21.7865 52.4783 21.7742 50.0398C13.7064 51.805 12.004 46.5964 12.004 46.5964C10.6847 43.2231 8.78383 42.3259 8.78383 42.3259C6.15276 40.5147 8.9823 40.5521 8.9823 40.5521C11.8943 40.7577 13.4277 43.5594 13.4277 43.5594C16.0143 48.0209 20.2121 46.7311 21.8669 45.9853C22.1272 44.0993 22.8787 42.8116 23.7082 42.0829C17.2668 41.3451 10.4955 38.8425 10.4955 27.66C10.4955 24.4737 11.6283 21.8702 13.4834 19.8264C13.1823 19.0914 12.1897 16.1232 13.7644 12.1032C13.7644 12.1032 16.1997 11.3188 21.7416 15.0947C24.0548 14.4481 26.5357 14.1239 29.0002 14.1127C31.4648 14.1239 33.9477 14.4479 36.2652 15.0947C41.8003 11.3191 44.2323 12.1034 44.2323 12.1034C45.8107 16.123 44.8177 19.0916 44.5166 19.8264C46.376 21.8702 47.5011 24.4737 47.5011 27.66C47.5011 38.8692 40.7169 41.3373 34.2592 42.0598C35.2993 42.9655 36.2262 44.7416 36.2262 47.4644C36.2262 51.3691 36.1927 54.5118 36.1927 55.4731C36.1927 56.2499 36.7147 57.1598 38.1846 56.873C49.701 53.01 58 42.0744 58 29.1845C58 13.066 45.0159 0 29.0002 0ZM10.8616 41.5735C10.7977 41.7185 10.571 41.7621 10.3646 41.6624C10.1541 41.5674 10.036 41.3697 10.104 41.2242C10.1665 41.0749 10.3938 41.0332 10.6036 41.1332C10.8143 41.2286 10.9344 41.4281 10.8616 41.5735ZM12.2881 42.8544C12.1499 42.9835 11.8794 42.9235 11.6958 42.7197C11.5062 42.5163 11.4706 42.2441 11.6109 42.1132C11.7536 41.9841 12.0157 42.0446 12.2058 42.2479C12.3957 42.4538 12.4324 42.724 12.2881 42.8544ZM13.2668 44.4933C13.089 44.6175 12.7985 44.501 12.6189 44.2416C12.4412 43.9821 12.4412 43.6709 12.6227 43.5462C12.8028 43.4215 13.089 43.5336 13.2709 43.7913C13.4481 44.0551 13.4481 44.3663 13.2666 44.4935L13.2668 44.4933ZM14.9216 46.3914C14.7628 46.5679 14.4241 46.5204 14.1762 46.2797C13.9227 46.0444 13.8523 45.7106 14.0118 45.5341C14.1726 45.3572 14.5131 45.4069 14.7628 45.6458C15.0143 45.8807 15.0913 46.217 14.9216 46.3914ZM17.0608 47.0321C16.9906 47.2607 16.6644 47.3647 16.3361 47.2676C16.008 47.1675 15.7934 46.8998 15.8596 46.6689C15.9278 46.4386 16.2554 46.3305 16.5862 46.4345C16.9138 46.5339 17.129 46.7995 17.0608 47.0321ZM19.495 47.3041C19.5032 47.5446 19.2247 47.7441 18.8799 47.7487C18.5333 47.7564 18.2526 47.5617 18.2487 47.3246C18.2487 47.0818 18.521 46.8841 18.8679 46.8782C19.2127 46.8713 19.495 47.0647 19.495 47.3041ZM21.8864 47.2117C21.9276 47.4466 21.6881 47.6878 21.3456 47.7521C21.0091 47.8139 20.6974 47.6689 20.6546 47.4361C20.6129 47.1953 20.8569 46.9541 21.1929 46.8918C21.5359 46.8319 21.8427 46.973 21.8864 47.2117Z" fill="white"/>
</g>
<defs>
<clipPath id="clip0_21_128">
<rect width="58" height="57" fill="white"/>
</clipPath>
</defs>
</svg>
