<svg width="50" height="57" viewBox="0 0 50 57" fill="none" xmlns="http://www.w3.org/2000/svg">
<g clip-path="url(#clip0_21_162)">
<path d="M4.5354 50.4231L0 0H49.8894L45.354 50.4231L24.8894 56.1231" fill="#E34F26"/>
<path d="M25 51.7385L41.4823 47.2442L45.354 4.05579H25" fill="#EF652A"/>
<path d="M25 22.8H16.7035L16.1504 16.4423H25V10.3038H9.29204L10.9513 29.0481H25V22.8ZM25 38.9134L17.9204 37.05L17.4779 32.1173H11.2832L12.0575 41.8731L25 45.3808V38.9134Z" fill="#ECEDEE"/>
<path d="M25 29.0481H32.6327L31.8584 37.05L25 38.9134V45.3808L37.7212 41.8731L39.4911 22.8H25V29.0481ZM25 10.3038V16.4423H40.0442L40.5973 10.3038H25Z" fill="white"/>
</g>
<defs>
<clipPath id="clip0_21_162">
<rect width="50" height="57" fill="white"/>
</clipPath>
</defs>
</svg>
