<svg width="27" height="56" viewBox="0 0 27 56" fill="none" xmlns="http://www.w3.org/2000/svg">
<g clip-path="url(#clip0_20_112)">
<path d="M18.5226 6.23322C16.0958 3.44842 14.0059 0.619958 13.579 0.0326208C13.5689 0.022313 13.5567 0.0141064 13.5431 0.00849895C13.5296 0.00289146 13.515 0 13.5003 0C13.4856 0 13.4711 0.00289146 13.4575 0.00849895C13.444 0.0141064 13.4318 0.022313 13.4217 0.0326208C12.9947 0.62006 10.9049 3.44842 8.47791 6.23322C-12.3529 31.9275 11.7588 49.2675 11.7588 49.2675L11.961 49.3981C12.1407 52.0741 12.5902 55.9251 12.5902 55.9251H14.388C14.388 55.9251 14.8373 52.0959 15.0171 49.3982L15.2194 49.2458C15.2418 49.2676 39.3536 31.9276 18.5226 6.23322ZM13.489 48.8758C13.489 48.8758 12.4104 47.9839 12.1183 47.5271V47.4835L13.4217 19.5047C13.4217 19.4177 13.5565 19.4177 13.5565 19.5047L14.8598 47.4835V47.5271C14.5677 47.9839 13.489 48.8759 13.489 48.8759V48.8758Z" fill="#01EC64"/>
</g>
<defs>
<clipPath id="clip0_20_112">
<rect width="27" height="56" fill="white"/>
</clipPath>
</defs>
</svg>
