<svg width="114" height="57" viewBox="0 0 114 57" fill="none" xmlns="http://www.w3.org/2000/svg">
<path d="M8.64006 12.6802H24.8326C29.5853 12.7201 33.0292 14.0904 35.1644 16.7888C37.2997 19.4872 38.0042 23.1728 37.2791 27.8457C36.9976 29.9809 36.3728 32.0751 35.4061 34.1293C34.4666 36.2023 33.1561 38.0862 31.5392 39.688C29.5249 41.7822 27.3703 43.1114 25.0743 43.6757C22.7406 44.2443 20.3467 44.5283 17.9447 44.5216H10.6943L8.39838 56.0014H0L8.64006 12.6802ZM15.7092 19.5681L12.084 37.6941C12.3257 37.734 12.5674 37.7545 12.809 37.7545H13.6549C17.5218 37.7944 20.7446 37.4125 23.3221 36.6066C25.8997 35.7607 27.6325 32.8206 28.5182 27.7852C29.2433 23.5558 28.5182 21.1185 26.3431 20.4744C24.2079 19.8303 21.53 19.5282 18.3073 19.5681C17.8239 19.608 17.3611 19.6285 16.9176 19.6285H15.6488L15.7092 19.5681ZM46.846 1.14001H55.184L52.8276 12.6802H60.3197C64.4282 12.7612 67.4891 13.6071 69.5035 15.2179C71.5578 16.8287 72.162 19.8907 71.3161 24.4017L67.268 44.5216H58.8092L62.6761 25.308C63.0785 23.2936 62.9576 21.8641 62.3135 21.0182C61.6694 20.1723 60.2798 19.7494 58.1446 19.7494L51.4379 19.689L46.4835 44.5216H38.1455L46.846 1.14001ZM80.2697 12.6802H96.4622C101.215 12.7201 104.659 14.0904 106.794 16.7888C108.929 19.4872 109.634 23.1728 108.909 27.8457C108.627 29.9809 108.002 32.0751 107.036 34.1293C106.096 36.2023 104.786 38.0862 103.169 39.688C101.154 41.7822 98.9999 43.1114 96.7039 43.6757C94.3702 44.2443 91.9763 44.5283 89.5744 44.5216H82.324L80.028 56.0014H71.6296L80.2697 12.6802ZM87.3388 19.5681L83.7136 37.6941C83.9553 37.734 84.197 37.7545 84.4387 37.7545H85.2845C89.1514 37.7944 92.3742 37.4125 94.9517 36.6066C97.5293 35.7607 99.2621 32.8206 100.148 27.7852C100.873 23.5558 100.148 21.1185 97.9727 20.4744C95.8375 19.8303 93.1597 19.5282 89.9369 19.5681C89.4535 19.608 88.9907 19.6285 88.5472 19.6285H87.2784L87.3388 19.5681Z" fill="white"/>
</svg>
