<svg width="57" height="57" viewBox="0 0 57 57" fill="none" xmlns="http://www.w3.org/2000/svg">
<g clip-path="url(#clip0_12_100)">
<path d="M28.1606 0.000466224C25.8103 0.0112679 23.5657 0.209529 21.5908 0.55518C15.7728 1.5718 14.7165 3.69966 14.7165 7.62382V12.8064H28.4651V14.534H14.7165H9.55673C5.56103 14.534 2.06224 16.9094 0.967868 21.4283C-0.294475 26.608 -0.350467 29.8402 0.967868 35.2486C1.94517 39.2744 4.2791 42.143 8.27483 42.143H13.0019V35.93C13.0019 31.4417 16.9283 27.4826 21.5908 27.4826H35.3234C39.1462 27.4826 42.1978 24.3695 42.1978 20.5724V7.62382C42.1978 3.93856 39.0543 1.17023 35.3234 0.55518C32.9616 0.166322 30.511 -0.0103356 28.1606 0.000466224ZM20.7255 4.16873C22.1456 4.16873 23.3053 5.33456 23.3053 6.76797C23.3053 8.19631 22.1456 9.35135 20.7255 9.35135C19.3002 9.35135 18.1456 8.19631 18.1456 6.76797C18.1456 5.33456 19.3002 4.16873 20.7255 4.16873Z" fill="url(#paint0_linear_12_100)"/>
<path d="M43.9121 14.534V20.5725C43.9121 25.254 39.8989 29.1943 35.3231 29.1943H21.5905C17.8289 29.1943 14.7162 32.3785 14.7162 36.1045V49.0532C14.7162 52.7382 17.9562 54.906 21.5905 55.9633C25.9425 57.2287 30.1159 57.4578 35.3231 55.9633C38.7842 54.9719 42.1975 52.9773 42.1975 49.0532V43.8704H28.4648V42.143H42.1975H49.0717C53.0674 42.143 54.5565 39.3863 55.9459 35.2486C57.3815 30.989 57.3203 26.8926 55.9459 21.4283C54.9583 17.494 53.0723 14.534 49.0717 14.534H43.9121ZM36.1882 47.3254C37.6136 47.3254 38.7682 48.4807 38.7682 49.9089C38.7682 51.3424 37.6136 52.5081 36.1882 52.5081C34.7682 52.5081 33.6085 51.3424 33.6085 49.9089C33.6085 48.4807 34.7682 47.3254 36.1882 47.3254Z" fill="url(#paint1_linear_12_100)"/>
</g>
<defs>
<linearGradient id="paint0_linear_12_100" x1="5.73787e-08" y1="4.94346e-08" x2="31.4093" y2="27.0607" gradientUnits="userSpaceOnUse">
<stop stop-color="#5A9FD4"/>
<stop offset="1" stop-color="#306998"/>
</linearGradient>
<linearGradient id="paint1_linear_12_100" x1="35.858" y1="49.4732" x2="24.6492" y2="33.5928" gradientUnits="userSpaceOnUse">
<stop stop-color="#FFD43B"/>
<stop offset="1" stop-color="#FFE873"/>
</linearGradient>
<clipPath id="clip0_12_100">
<rect width="57" height="57" fill="white"/>
</clipPath>
</defs>
</svg>
