<svg width="57" height="57" viewBox="0 0 57 57" fill="none" xmlns="http://www.w3.org/2000/svg">
<path d="M27.4122 13.3914C25.4731 10.4833 25.0539 6.59656 24.9624 4.99938C20.0367 6.06456 15.143 7.97525 15.4256 9.38244C15.4613 9.55938 15.6845 9.77194 16.055 9.97856L15.4755 11.0153C14.7678 10.6186 14.3699 10.1614 14.2619 9.61519C13.9424 8.02275 15.7463 6.58231 19.7743 5.21075C21.6237 4.59506 23.5075 4.08793 25.4161 3.69194L26.125 3.54944V4.275C26.125 4.32488 26.1559 9.367 28.4002 12.7336L27.4122 13.3914ZM29.3918 51.0625H29.0937C19.3657 51.0625 8.53931 48.0071 7.26038 42.8937C6.48019 39.7706 9.03213 36.3197 14.6395 32.9175L15.257 33.9316C10.2113 36.9942 7.7805 40.0734 8.41344 42.6063C9.52375 47.0452 19.7837 49.8121 28.7826 49.8738C29.8526 48.2743 35.6012 38.8776 32.3202 26.2746L33.4685 25.9754C37.2079 40.3346 29.6471 50.7193 29.5711 50.8226L29.3918 51.0625Z" fill="#CFD8DC"/>
<path d="M11.7931 46.6759C11.153 46.6759 10.8359 46.6058 10.7837 46.5928C10.6809 46.5682 10.5865 46.5166 10.5105 46.4432C10.4344 46.3699 10.3794 46.2775 10.3511 46.1756C10.3229 46.0738 10.3224 45.9662 10.3499 45.8642C10.3773 45.7621 10.4315 45.6693 10.507 45.5953C10.5925 45.5098 19.0534 37.0358 20.1958 30.1839L21.3667 30.3787C20.3846 36.2734 14.5801 42.9935 12.2752 45.4682C14.5777 45.3364 20.3917 44.2581 31.5531 38.0107C22.8427 37.056 21.4652 30.083 21.451 30.0082L22.6183 29.7932C22.6741 30.0853 24.0742 36.9313 33.5956 36.9313H33.6051C33.7359 36.931 33.8631 36.974 33.967 37.0534C34.0709 37.1329 34.1456 37.2445 34.1796 37.3708C34.2136 37.4971 34.2049 37.6311 34.1549 37.752C34.1049 37.8728 34.0164 37.9738 33.9031 38.0392C20.5616 45.7686 14.0921 46.6747 11.7931 46.6759Z" fill="#CFD8DC"/>
<path d="M17.2472 49.5188C17.121 49.5197 16.9977 49.4803 16.8954 49.4063C16.7931 49.3322 16.7172 49.2275 16.6786 49.1073C16.64 48.987 16.6409 48.8576 16.681 48.7379C16.7211 48.6182 16.7984 48.5144 16.9017 48.4417C16.9421 48.412 19.0546 46.8528 21.3026 43.421C20.4062 43.0254 19.5352 42.5745 18.6948 42.0708C17.6403 41.4378 16.8435 40.7586 16.2486 40.0627C13.1967 40.8678 10.3799 41.1861 7.90637 40.9759L8.00612 39.7931C10.2339 39.982 12.7668 39.7183 15.5123 39.0331C13.6444 35.8411 15.3591 32.6729 15.3829 32.6301L16.4207 33.2085C16.3412 33.3533 14.9186 36.0228 16.7164 38.7101C19.3301 37.9596 22.1184 36.8493 25.004 35.4065C25.7351 32.9767 26.2224 30.4801 26.4587 27.9538C26.4681 27.8597 26.4998 27.7692 26.5512 27.6899C26.6026 27.6105 26.6721 27.5445 26.7541 27.4974C26.836 27.4503 26.928 27.4234 27.0224 27.4189C27.1169 27.4144 27.211 27.4325 27.2971 27.4716C27.3351 27.4895 31.1731 29.2422 33.9518 30.3858C34.051 30.4265 34.1373 30.4934 34.2016 30.5793C34.2658 30.6652 34.3056 30.7669 34.3167 30.8736C34.3278 30.9803 34.3097 31.088 34.2645 31.1853C34.2193 31.2825 34.1486 31.3657 34.0599 31.426C31.4807 33.194 28.7924 34.7971 26.011 36.2259C25.2901 38.5416 24.3106 40.7688 23.0909 42.8652C27.4871 44.5075 31.3025 44.5325 31.3512 44.5325C31.4831 44.532 31.6114 44.5754 31.7159 44.656C31.8204 44.7365 31.8951 44.8496 31.9282 44.9773C31.9612 45.105 31.9508 45.2401 31.8986 45.3613C31.8464 45.4824 31.7553 45.5827 31.6397 45.6463C26.2485 48.6412 17.6664 49.4843 17.3042 49.5188H17.2472ZM22.4544 43.8983C21.2194 45.815 20.0058 47.1913 19.0986 48.0902C21.4712 47.7411 25.631 46.9763 29.0831 45.5501C26.8147 45.2704 24.5888 44.7157 22.4544 43.8983ZM17.5358 39.6993C18.0025 40.1648 18.5844 40.6196 19.3052 41.0531C20.1792 41.578 21.0662 42.0233 21.9414 42.4009C22.9624 40.6791 23.8142 38.8624 24.4851 36.9764C22.0851 38.1188 19.7552 39.0308 17.5358 39.6993ZM27.5524 28.8907C27.3312 30.8343 26.9688 32.7591 26.4682 34.6501C28.5274 33.5476 30.5333 32.3485 32.4793 31.0567C30.8291 30.3527 29.1867 29.6307 27.5524 28.8907ZM21.2847 12.5875C21.1433 12.5871 21.0066 12.5366 20.8988 12.445C18.9869 10.8086 16.7366 7.4789 16.6416 7.33759C16.5675 7.22729 16.5326 7.09534 16.5424 6.96283C16.5521 6.83033 16.6061 6.70493 16.6956 6.60671C16.785 6.50848 16.9049 6.4431 17.0359 6.42103C17.1669 6.39896 17.3015 6.42147 17.4182 6.48496C17.4313 6.48853 18.5321 6.94215 25.9884 8.18428C26.0938 8.20127 26.1926 8.2464 26.2744 8.31489C26.3562 8.38338 26.418 8.47269 26.4533 8.5734C26.4886 8.6741 26.496 8.78246 26.4748 8.88703C26.4536 8.99161 26.4045 9.08852 26.3328 9.16752C24.2452 11.4867 21.6077 12.508 21.4961 12.5495C21.4284 12.5743 21.3569 12.5871 21.2847 12.5875ZM18.5808 8.0109C19.3301 9.01909 20.4096 10.3812 21.3976 11.2991C22.5828 10.7514 23.6807 10.0319 24.6561 9.16396C21.5887 8.64028 19.7172 8.2674 18.5808 8.0109Z" fill="#CFD8DC"/>
<path d="M25.9386 28.975C25.8554 28.975 25.7732 28.9575 25.6972 28.9236C25.6213 28.8898 25.5533 28.8403 25.4977 28.7785C25.442 28.7168 25.4 28.644 25.3743 28.5649C25.3485 28.4858 25.3397 28.4022 25.3484 28.3195C25.6951 25.0551 20.6863 23.7453 20.6352 23.7334C20.5336 23.7075 20.4407 23.6551 20.3659 23.5817C20.2911 23.5082 20.2371 23.4163 20.2094 23.3152C20.1816 23.2141 20.1811 23.1075 20.208 23.0062C20.2348 22.9048 20.2879 22.8124 20.3621 22.7383C20.6079 22.4925 26.4646 16.6844 33.8129 13.4948C33.9126 13.4515 34.0222 13.4364 34.1299 13.4511C34.2375 13.4658 34.3391 13.5098 34.4235 13.5783C34.5079 13.6468 34.5719 13.7371 34.6085 13.8394C34.6451 13.9417 34.6529 14.0521 34.6311 14.1586C33.2227 20.9796 26.6629 28.4608 26.3851 28.7755C26.3286 28.838 26.2597 28.888 26.1828 28.9223C26.106 28.9567 26.0228 28.9746 25.9386 28.975ZM21.9153 22.9009C23.3213 23.4294 25.7842 24.6525 26.4076 26.8862C28.1283 24.7392 31.8013 19.7933 33.1728 15.0896C27.9633 17.5952 23.5766 21.3738 21.9153 22.9009Z" fill="#B71C1C"/>
<path d="M15.5313 33.6775L14.9672 32.6325C17.2033 31.4272 19.7647 29.2089 21.8631 26.6309C20.0771 27.854 19.0546 28.6912 19.0226 28.7185L18.2637 27.8041C18.3101 27.7661 20.3585 26.0858 23.7631 23.9804C24.6976 22.477 25.4161 20.9309 25.7854 19.4489C25.8483 19.1971 25.9029 18.9537 25.9469 18.7185C23.6609 17.9027 21.5519 17.4194 20.1032 17.2116C19.9958 17.1965 19.8946 17.1522 19.8106 17.0837C19.7265 17.0151 19.6629 16.9248 19.6265 16.8226C19.5902 16.7205 19.5825 16.6103 19.6044 16.504C19.6262 16.3978 19.6768 16.2996 19.7505 16.22C19.8514 16.1108 22.2632 13.5268 25.2771 12.1077C25.3915 12.0539 25.5202 12.038 25.6443 12.0623C25.7684 12.0867 25.8815 12.15 25.9671 12.2431C26.0466 12.3298 27.6771 14.1609 27.2626 17.949C28.6342 18.4834 30.0473 19.133 31.4082 19.906C34.6845 18.4335 38.4049 17.1083 42.3676 16.3079C42.472 16.2882 42.5797 16.2962 42.6799 16.3312C42.7802 16.3663 42.8694 16.427 42.9388 16.5074C43.0777 16.6737 43.1157 16.9029 43.0374 17.1047C41.4936 21.0615 37.354 25.2878 37.1782 25.4659C37.119 25.5253 37.0478 25.5716 36.9695 25.6017C36.8911 25.6317 36.8073 25.645 36.7235 25.6405C36.6397 25.636 36.5578 25.6139 36.4831 25.5757C36.4084 25.5374 36.3426 25.4838 36.29 25.4184C34.96 23.7464 33.2215 22.3618 31.3464 21.2349C29.0278 22.309 26.774 23.518 24.5967 24.8555C22.1979 28.5997 18.5772 32.0375 15.5313 33.6775ZM32.6467 20.6577C34.1786 21.6457 35.6048 22.8071 36.784 24.1585C37.7672 23.0921 40.1268 20.3965 41.4651 17.7199C38.3182 18.4442 35.34 19.4928 32.6467 20.6577ZM27.0738 19.1449C27.0346 19.3384 26.9895 19.5367 26.9396 19.7386C26.6902 20.7349 26.2936 21.7585 25.7854 22.7798C27.1897 21.9767 28.6228 21.2249 30.0817 20.5259C29.105 20.011 28.1009 19.55 27.0738 19.1449ZM21.432 16.2355C22.7513 16.4944 24.377 16.9171 26.1119 17.5251C26.2924 15.3365 25.7011 13.9959 25.3436 13.4021C23.7096 14.2547 22.2787 15.4541 21.432 16.2355Z" fill="#B71C1C"/>
<path d="M21.4344 21.9688C21.4344 27.17 17.1 31.3025 13.9769 34.3188C13.4544 34.8294 11.685 34.9125 11.685 34.9125C12.1244 34.4613 12.6231 33.9863 13.1575 33.4757C16.1262 30.6019 20.2469 26.6713 20.2469 21.9688C20.2469 16.3994 18.0025 14.2025 16.2331 12.445C15.4494 11.6494 14.7844 10.8894 14.3806 9.96315L14.7487 9.80878C15.1525 9.9869 15.6156 10.1888 15.9719 10.3432C16.2569 10.7588 16.6369 11.1625 17.0762 11.6019C18.8931 13.4188 21.4344 15.9125 21.4344 21.9688Z" fill="#B71C1C"/>
<path d="M50.9853 23.5054C50.9853 23.5054 50.2669 23.6075 50.065 23.6313C39.6625 24.7831 28.9275 27.7756 22.7881 30.2338C20.5675 31.1244 18.2638 32.205 16.1619 33.4163C16.15 33.4281 16.1381 33.4281 16.1144 33.44C14.8794 34.1525 11.875 35.625 9.44063 36.9194C13.0031 33.1313 19.6769 30.21 22.3369 29.1413C28.3575 26.7306 38.7006 23.8213 48.8775 22.5744C47.6781 21.1731 44.745 18.2044 38.9738 15.9956C35.6013 14.6894 30.4713 13.9531 25.9469 13.3C18.7506 12.2669 14.6538 11.5781 14.2619 9.61877C14.1788 9.22689 14.2381 8.83502 14.4163 8.45502C14.8081 9.09627 15.3663 9.54752 15.7344 9.80877C15.9125 9.92752 16.0431 9.99877 16.0906 10.0225L16.1025 10.0344C17.7888 10.925 22.3369 11.5781 26.125 12.1244C30.7088 12.7894 35.8981 13.5375 39.4013 14.8794C47.5594 18.0263 50.3738 22.5269 50.4925 22.7169C50.5994 22.895 50.9853 23.5054 50.9853 23.5054Z" fill="#B71C1C"/>
</svg>
