<svg width="57" height="57" viewBox="0 0 57 57" fill="none" xmlns="http://www.w3.org/2000/svg">
<path d="M28.5 54.15C42.6661 54.15 54.15 42.6661 54.15 28.5C54.15 14.3339 42.6661 2.84998 28.5 2.84998C14.3339 2.84998 2.85001 14.3339 2.85001 28.5C2.85001 42.6661 14.3339 54.15 28.5 54.15Z" fill="#F47421"/>
<path d="M28.5 40.926C35.3627 40.926 40.926 35.3627 40.926 28.5C40.926 21.6373 35.3627 16.074 28.5 16.074C21.6373 16.074 16.074 21.6373 16.074 28.5C16.074 35.3627 21.6373 40.926 28.5 40.926Z" stroke="white" stroke-width="8.6"/>
<path d="M11.058 33.288C13.7023 33.288 15.846 31.1444 15.846 28.5C15.846 25.8557 13.7023 23.712 11.058 23.712C8.41365 23.712 6.26999 25.8557 6.26999 28.5C6.26999 31.1444 8.41365 33.288 11.058 33.288Z" fill="#F47421"/>
<path d="M38.19 28.5H43.89H38.19Z" fill="black"/>
<path d="M38.19 28.5H43.89" stroke="#F47421" stroke-width="3.2"/>
<path d="M11.058 31.9201C12.9468 31.9201 14.478 30.3889 14.478 28.5001C14.478 26.6113 12.9468 25.0801 11.058 25.0801C9.16919 25.0801 7.638 26.6113 7.638 28.5001C7.638 30.3889 9.16919 31.9201 11.058 31.9201Z" fill="white"/>
<path d="M33.0745 11.0007C31.7523 13.2908 32.5369 16.2191 34.827 17.5413C37.1171 18.8634 40.0454 18.0788 41.3675 15.7887C42.6897 13.4987 41.9051 10.5704 39.615 9.24821C37.3249 7.92604 34.3966 8.71068 33.0745 11.0007Z" fill="#F47421"/>
<path d="M23.655 36.8917L20.805 41.8281L23.655 36.8917Z" fill="black"/>
<path d="M23.655 36.8917L20.805 41.8281" stroke="#F47421" stroke-width="3.2"/>
<path d="M34.2592 11.6848C33.3148 13.3205 33.8753 15.4122 35.511 16.3566C37.1468 17.301 39.2384 16.7405 40.1828 15.1048C41.1272 13.469 40.5668 11.3774 38.931 10.4329C37.2953 9.48854 35.2036 10.049 34.2592 11.6848Z" fill="white"/>
<path d="M41.3675 41.2112C40.0454 38.9212 37.1171 38.1365 34.827 39.4587C32.5369 40.7809 31.7523 43.7092 33.0745 45.9992C34.3966 48.2893 37.3249 49.0739 39.615 47.7518C41.9051 46.4296 42.6897 43.5013 41.3675 41.2112Z" fill="#F47421"/>
<path d="M23.655 20.1083L20.805 15.1719L23.655 20.1083Z" fill="black"/>
<path d="M23.655 20.1083L20.805 15.1719" stroke="#F47421" stroke-width="3.2"/>
<path d="M40.1828 41.8952C39.2384 40.2594 37.1468 39.699 35.511 40.6434C33.8753 41.5878 33.3148 43.6794 34.2592 45.3152C35.2036 46.9509 37.2953 47.5114 38.931 46.567C40.5668 45.6226 41.1272 43.5309 40.1828 41.8952Z" fill="white"/>
</svg>
